<?xml version="1.0" encoding="UTF-8"?>
<svg viewBox="0 0 320.66 320.66" xmlns="http://www.w3.org/2000/svg">
 <text x="0.00977" y="13.42981" font-family="Times New Roman" font-size="14.993px" xml:space="preserve"/>
 <path d="m43.125 27.594c-3.9731 0-7.9374 1.5311-10.969 4.5625-6.0627 6.0627-6.0627 15.875 0 21.938 3.2523 3.2524 7.5864 4.7683 11.844 4.5312l39.375 39.406-39.188 39.188 34.75-11.781 9.6562-9.6562 44.531 44.5-95.375 95.375-5.5 32.625 32.656-5.4688 95.344-95.344 95.438 95.406 32.656 5.4688-5.4688-32.688-95.406-95.406 44.5-44.5 9.6875 9.6875 34.75 11.781-39.25-39.25 39.375-39.344c4.2574 0.23706 8.5914-1.2789 11.844-4.5312 6.0627-6.0627 6.0627-15.875 0-21.938-3.0314-3.0314-6.9956-4.5625-10.969-4.5625-3.9731 0-7.9374 1.5311-10.969 4.5625-3.2524 3.2524-4.7683 7.5864-4.5312 11.844l-39.375 39.344-39.188-39.219 11.781 34.781 9.6875 9.6875-44.5 44.5-44.5-44.5 9.625-9.6562 11.781-34.75-39.156 39.156-39.438-39.438c0.21019-4.2275-1.2713-8.5213-4.5-11.75-3.0314-3.0314-7.0269-4.5625-11-4.5625z" fill-rule="evenodd"/>
</svg>
