<?xml version="1.0" encoding="utf-8"?>
<!-- Generator: Adobe Illustrator 22.0.1, SVG Export Plug-In . SVG Version: 6.00 Build 0)  -->
<svg version="1.1" id="Слой_1" xmlns="http://www.w3.org/2000/svg" xmlns:xlink="http://www.w3.org/1999/xlink" x="0px" y="0px"
	 viewBox="0 0 16 16" style="enable-background:new 0 0 16 16;" xml:space="preserve">
<path d="M12.2,8h-1.3C11.5,7,12,5.8,12,4.6c0-2.7-1.7-4.3-3.8-4.3S4.3,2,4.3,4.6C4.3,5.8,4.8,7,5.4,8H4.1C3.7,8,3.3,8.3,3.3,8.7v1
	c0,0.4,0.3,0.7,0.7,0.7H7V15c0,0.4,0.3,0.7,0.7,0.7h1c0.4,0,0.7-0.3,0.7-0.7v-4.6h2.9c0.4,0,0.7-0.3,0.7-0.7v-1
	C13,8.3,12.6,8,12.2,8z M8.2,2.7c0.9,0,1.4,0.7,1.4,1.9c0,1-0.8,2.3-1.4,3c-0.6-0.7-1.4-2-1.4-3C6.7,3.4,7.3,2.7,8.2,2.7z"/>
</svg>
