<?xml version="1.0" encoding="utf-8"?>
<!-- Generator: Adobe Illustrator 22.0.1, SVG Export Plug-In . SVG Version: 6.00 Build 0)  -->
<svg version="1.1" id="Слой_1" xmlns="http://www.w3.org/2000/svg" xmlns:xlink="http://www.w3.org/1999/xlink" x="0px" y="0px"
	 viewBox="0 0 16 16" style="enable-background:new 0 0 16 16;" xml:space="preserve">
<path d="M4.5,0.5C3.7,0.5,3,1.2,3,2v0.5h4V2c0-0.8-0.7-1.5-1.5-1.5H4.5z M7,3.5v1h2v-1h4v0.9c0,0.2,0.1,0.4,0.3,0.4l0.9,0.4
	C14.7,5.5,15,6,15,6.6v5.9H9V11c0-0.1,0.1-0.3,0.1-0.4L10,9.8V9c0-0.3-0.2-0.5-0.5-0.5h-3C6.2,8.5,6,8.7,6,9v0.8l0.9,0.9
	C6.9,10.7,7,10.9,7,11v1.5H1V6.6C1,6,1.3,5.5,1.8,5.3l0.9-0.4C2.9,4.7,3,4.6,3,4.4V3.5H7z M1,13.5V14c0,0.8,0.7,1.5,1.5,1.5l0,0h3
	C6.3,15.5,7,14.8,7,14l0,0v-0.5H1z M9,13.5V14c0,0.8,0.7,1.5,1.5,1.5l0,0h3c0.8,0,1.5-0.7,1.5-1.5l0,0v-0.5H9z M13,2.5H9V2
	c0-0.8,0.7-1.5,1.5-1.5h1C12.3,0.5,13,1.2,13,2V2.5z"/>
</svg>
