<?xml version="1.0" encoding="utf-8"?>
<!-- Generator: Adobe Illustrator 22.0.1, SVG Export Plug-In . SVG Version: 6.00 Build 0)  -->
<svg version="1.1" id="Слой_1" xmlns="http://www.w3.org/2000/svg" xmlns:xlink="http://www.w3.org/1999/xlink" x="0px" y="0px"
	 viewBox="0 0 9.8 9.8" style="enable-background:new 0 0 9.8 9.8;" xml:space="preserve">
<style type="text/css">
	.st0{fill:#FFFFFF;}
</style>
<g>
	<path d="M8.5,0.2H7.4c-0.2,0-0.3,0.1-0.3,0.3v0.9H6.2V0.5c0-0.2-0.1-0.3-0.3-0.3H4.3C4.1,0.2,4,0.3,4,0.5v0.9H3V0.5
		c0-0.2-0.1-0.3-0.3-0.3H1.6c-0.2,0-0.3,0.1-0.3,0.3v3.5l1.3,0.6c0,1,0,1.9-0.3,3.1h5.6C7.6,6.4,7.6,5.5,7.6,4.6l1.3-0.6V0.5
		C8.8,0.3,8.7,0.2,8.5,0.2z"/>
	<path class="st0" d="M5.7,5.8H4.4V4.6c0-0.3,0.3-0.6,0.6-0.6s0.6,0.3,0.6,0.6V5.8z"/>
	<path d="M8.5,8.4H1.6c-0.2,0-0.3,0.1-0.3,0.3v0.6c0,0.2,0.1,0.3,0.3,0.3h6.9c0.2,0,0.3-0.1,0.3-0.3V8.7C8.8,8.5,8.7,8.4,8.5,8.4z"
		/>
</g>
</svg>
