<?xml version="1.0" encoding="utf-8"?>
<!-- Generator: Adobe Illustrator 22.0.1, SVG Export Plug-In . SVG Version: 6.00 Build 0)  -->
<svg version="1.1" id="Слой_1" xmlns="http://www.w3.org/2000/svg" xmlns:xlink="http://www.w3.org/1999/xlink" x="0px" y="0px"
	 viewBox="0 0 15 15" style="enable-background:new 0 0 15 15;" xml:space="preserve">
<g id="XMLID_1_">
	<g>
		<path d="M3.9,11.7l-1.2,0.7c-0.1,0.1-0.3,0.1-0.4-0.1c-0.7-0.8-1.3-1.7-1.6-2.8c0-0.2,0-0.3,0.2-0.4L2,8.5c-0.1-0.7-0.1-1.4,0-2
			L0.8,5.8C0.6,5.7,0.6,5.5,0.6,5.4c0.3-1,0.9-2,1.6-2.8c0.1-0.1,0.3-0.1,0.4-0.1l1.2,0.7c0.5-0.4,1.1-0.8,1.8-1V0.8
			c0-0.2,0.1-0.3,0.3-0.3c1-0.2,2.1-0.2,3.2,0c0.2,0,0.3,0.2,0.3,0.3v1.4c0.7,0.2,1.3,0.6,1.8,1l1.2-0.7c0.1-0.1,0.3,0,0.4,0.1
			c0.7,0.8,1.3,1.7,1.6,2.7c0,0.2,0,0.3-0.2,0.4L13,6.5c0.1,0.7,0.1,1.4,0,2l1.2,0.7c0.1,0.1,0.2,0.3,0.2,0.4c-0.3,1-0.9,2-1.6,2.8
			c-0.1,0.1-0.3,0.1-0.4,0.1l-1.2-0.7c-0.5,0.4-1.1,0.8-1.8,1v1.4c0,0.2-0.1,0.3-0.3,0.3c-1,0.2-2.1,0.2-3.2,0
			c-0.2,0-0.3-0.2-0.3-0.3v-1.4C5,12.5,4.4,12.2,3.9,11.7z"/>
	</g>
	<g>
	</g>
</g>
</svg>
