<?xml version="1.0" encoding="utf-8"?>
<!-- Generator: Adobe Illustrator 22.0.1, SVG Export Plug-In . SVG Version: 6.00 Build 0)  -->
<svg version="1.1" id="Слой_1" xmlns="http://www.w3.org/2000/svg" xmlns:xlink="http://www.w3.org/1999/xlink" x="0px" y="0px"
	 viewBox="0 0 16.4 16.2" style="enable-background:new 0 0 16.4 16.2;" xml:space="preserve">
<path d="M13.3,13.5H3.1c-0.2,0-0.4,0.2-0.4,0.4v0.8c0,0.2,0.2,0.4,0.4,0.4h10.2c0.2,0,0.4-0.2,0.4-0.4v-0.8
	C13.7,13.7,13.5,13.5,13.3,13.5z M14.8,4.2c-0.6,0-1.2,0.6-1.2,1.4c0,0.2,0,0.4,0.1,0.6L12,7.4c-0.4,0.3-0.9,0.1-1.1-0.3L8.9,3
	c0.3-0.3,0.4-0.6,0.4-1.1c0-0.8-0.5-1.4-1.2-1.4S7,1.1,7,1.9C7,2.3,7.2,2.7,7.4,3L5.5,7C5.2,7.5,4.7,7.6,4.4,7.4L2.6,6.1
	C2.7,6,2.7,5.8,2.7,5.6c0-0.8-0.5-1.4-1.2-1.4S0.4,4.8,0.4,5.6s0.5,1.4,1.2,1.4c0.1,0,0.1,0,0.2,0l1.8,5.5h9.4l1.8-5.5
	c0.1,0,0.1,0,0.2,0c0.6,0,1.2-0.6,1.2-1.4S15.5,4.2,14.8,4.2z"/>
</svg>
