<?xml version="1.0" encoding="utf-8"?>
<!-- Generator: Adobe Illustrator 22.0.1, SVG Export Plug-In . SVG Version: 6.00 Build 0)  -->
<svg version="1.1" id="Слой_1" xmlns="http://www.w3.org/2000/svg" xmlns:xlink="http://www.w3.org/1999/xlink" x="0px" y="0px"
	 viewBox="0 0 15 14.6" style="enable-background:new 0 0 15 14.6;" xml:space="preserve">
<path d="M14.1,9.9v3.3c0,0.4-0.3,0.7-0.7,0.7c0,0,0,0,0,0h-3.3c-0.6,0-0.9-0.8-0.5-1.2l1.1-1.1L7.5,8.5l-3.2,3.2l1.1,1.1
	c0.4,0.4,0.1,1.2-0.5,1.2H1.6c-0.4,0-0.7-0.3-0.7-0.7c0,0,0,0,0,0V9.9c0-0.6,0.8-0.9,1.2-0.5l1.1,1.1l3.2-3.2L3.2,4.2L2.1,5.2
	C1.7,5.7,0.9,5.4,0.9,4.7V1.4c0-0.4,0.3-0.7,0.7-0.7c0,0,0,0,0,0h3.3c0.6,0,0.9,0.8,0.5,1.2L4.3,3l3.2,3.2L10.6,3L9.6,1.9
	c-0.4-0.4-0.1-1.2,0.5-1.2h3.3c0.4,0,0.7,0.3,0.7,0.7c0,0,0,0,0,0v3.3c0,0.6-0.8,0.9-1.2,0.5l-1.1-1.1L8.6,7.3l3.2,3.2l1.1-1.1
	C13.3,9,14.1,9.3,14.1,9.9z"/>
</svg>
