<?xml version="1.0" encoding="utf-8"?>
<!-- Generator: Adobe Illustrator 22.0.1, SVG Export Plug-In . SVG Version: 6.00 Build 0)  -->
<svg version="1.1" id="Слой_1" xmlns="http://www.w3.org/2000/svg" xmlns:xlink="http://www.w3.org/1999/xlink" x="0px" y="0px"
	 viewBox="0 0 15.9 16" style="enable-background:new 0 0 15.9 16;" xml:space="preserve">
<style type="text/css">
	.st0{fill:#FFFFFF;}
</style>
<g id="XMLID_1_">
	<g>
		<path d="M15.5,7.2c0.1,0.2,0.1,0.5,0,0.8c-1.4,2.8-4.3,4.7-7.5,4.7c-3.3,0-6.1-1.9-7.5-4.7c-0.1-0.2-0.1-0.5,0-0.8
			C1.9,4.4,4.7,2.5,8,2.5C11.2,2.5,14.1,4.4,15.5,7.2z M11.8,7.6c0-2.1-1.7-3.8-3.8-3.8c-2.1,0-3.8,1.7-3.8,3.8
			c0,2.1,1.7,3.8,3.8,3.8c0,0,0,0,0,0C10.1,11.4,11.8,9.7,11.8,7.6z"/>
		<path class="st0" d="M8,3.8c2.1,0,3.8,1.7,3.8,3.8c0,2.1-1.7,3.8-3.8,3.8c0,0,0,0,0,0c-2.1,0-3.8-1.7-3.8-3.8
			C4.1,5.5,5.9,3.8,8,3.8z M10.4,8.3c0.4-1.3-0.4-2.7-1.8-3.1C8.4,5.1,8.2,5.1,8,5.1c-0.2,0-0.4,0-0.7,0.1C7.7,5.7,7.6,6.5,7,6.9
			c-0.4,0.3-1,0.3-1.5,0C5.2,8.3,5.9,9.7,7.3,10C8.7,10.4,10,9.6,10.4,8.3z"/>
		<path d="M8.6,5.1c1.4,0.4,2.2,1.8,1.8,3.1C10,9.6,8.7,10.4,7.3,10C5.9,9.7,5.2,8.3,5.5,6.9C6,7.3,6.6,7.3,7,6.9
			c0.6-0.4,0.7-1.2,0.3-1.8C7.5,5.1,7.7,5.1,8,5.1C8.2,5.1,8.4,5.1,8.6,5.1z"/>
	</g>
	<g>
	</g>
</g>
</svg>
