<?xml version="1.0" encoding="utf-8"?>
<!-- Generator: Adobe Illustrator 22.0.1, SVG Export Plug-In . SVG Version: 6.00 Build 0)  -->
<svg version="1.1" id="Слой_1" xmlns="http://www.w3.org/2000/svg" xmlns:xlink="http://www.w3.org/1999/xlink" x="0px" y="0px"
	 viewBox="0 0 26 26" style="enable-background:new 0 0 26 26;" xml:space="preserve">
<path d="M25.1,0.9C22.6,1.1,5.5,2.7,4.3,14.5C4.1,15.8,4,17,4,18.3l8.4-8.4c0.3-0.3,0.8-0.3,1.1,0c0.3,0.3,0.3,0.8,0,1.1L1.2,23.2
	c-0.4,0.4-0.4,1.2,0,1.6c0.4,0.4,1.2,0.4,1.6,0l2.7-2.7c2,0,4-0.1,5.9-0.3c2.5-0.3,4.6-1.2,6.3-2.7H13l6.9-2.3
	c0.5-0.7,1-1.4,1.4-2.2h-3.8l5-2.5C24.5,7.2,25,2.2,25.1,0.9z"/>
</svg>
