<?xml version="1.0" encoding="utf-8"?>
<!-- Generator: Adobe Illustrator 22.0.1, SVG Export Plug-In . SVG Version: 6.00 Build 0)  -->
<svg version="1.1" id="Слой_1" xmlns="http://www.w3.org/2000/svg" xmlns:xlink="http://www.w3.org/1999/xlink" x="0px" y="0px"
	 viewBox="0 0 15.1 15.1" style="enable-background:new 0 0 15.1 15.1;" xml:space="preserve">
<style type="text/css">
	.st0{fill:#FFFFFF;}
</style>
<g id="XMLID_1_">
	<g>
		<path class="st0" d="M8.6,7.2l1.3,2.1H5.2l1.3-2.1C6.6,7,6.7,6.9,6.7,6.7V2.4h1.7v4.3C8.4,6.9,8.5,7,8.6,7.2z"/>
		<path d="M9.9,9.3L8.6,7.2C8.5,7,8.4,6.9,8.4,6.7V2.4H6.7v4.3c0,0.2-0.1,0.4-0.2,0.5L5.2,9.3H9.9z M10.2,6.4l3.2,5.1
			c0.8,1.3-0.1,2.9-1.6,2.9H3.4c-1.5,0-2.4-1.7-1.6-2.9L5,6.4V2.4H4.7c-0.4,0-0.7-0.3-0.7-0.6V1.3c0-0.4,0.3-0.6,0.7-0.6h5.6
			c0.4,0,0.6,0.3,0.6,0.6v0.4c0,0.4-0.3,0.6-0.6,0.6h-0.2V6.4z"/>
	</g>
	<g>
	</g>
</g>
</svg>
