<?xml version="1.0" encoding="utf-8"?>
<!-- Generator: Adobe Illustrator 22.0.1, SVG Export Plug-In . SVG Version: 6.00 Build 0)  -->
<svg version="1.1" id="Слой_1" xmlns="http://www.w3.org/2000/svg" xmlns:xlink="http://www.w3.org/1999/xlink" x="0px" y="0px"
	 viewBox="0 0 12.1 12.5" style="enable-background:new 0 0 12.1 12.5;" xml:space="preserve">
<style type="text/css">
	.st0{fill:#FFFFFF;}
</style>
<g id="XMLID_1_">
	<g>
		<path d="M6.1,0.4c3.2,0,5.9,2.6,5.9,5.9s-2.6,5.9-5.9,5.9c-3.2,0-5.9-2.6-5.9-5.9S2.8,0.4,6.1,0.4z M9.5,8.9V8.7H8.5v0.9h0.2
			C9.1,9.7,9.5,9.3,9.5,8.9z M9.5,8.3V8.2c0-0.4-0.3-0.8-0.8-0.8H8.5v0.9H9.5z M8.1,9.7V8.7H7v0.9H8.1z M8.1,8.3V7.4H7v0.9H8.1z
			 M8.7,5.1c0-0.4-0.3-0.8-0.8-0.8c-0.4,0-0.8,0.3-0.8,0.8c0,0.4,0.3,0.8,0.8,0.8C8.4,5.9,8.7,5.5,8.7,5.1z M6.6,9.7V8.7H5.5v0.9
			H6.6z M6.6,8.3V7.4H5.5v0.9H6.6z M5.1,9.7V8.7H4v0.9H5.1z M5.1,8.3V7.4H4v0.9H5.1z M4.9,5.1c0-0.4-0.3-0.8-0.8-0.8
			S3.4,4.7,3.4,5.1c0,0.4,0.3,0.8,0.8,0.8S4.9,5.5,4.9,5.1z M3.6,9.7V8.7H2.6v0.2c0,0.4,0.3,0.8,0.8,0.8H3.6z M3.6,8.3V7.4H3.4
			C3,7.4,2.6,7.7,2.6,8.2v0.2H3.6z"/>
		<path class="st0" d="M9.5,8.7v0.2c0,0.4-0.3,0.8-0.8,0.8H8.5V8.7H9.5z"/>
		<path class="st0" d="M9.5,8.2v0.2H8.5V7.4h0.2C9.1,7.4,9.5,7.7,9.5,8.2z"/>
		<rect x="7" y="8.7" class="st0" width="1.1" height="0.9"/>
		<rect x="7" y="7.4" class="st0" width="1.1" height="0.9"/>
		<path class="st0" d="M8,4.4c0.4,0,0.8,0.3,0.8,0.8c0,0.4-0.3,0.8-0.8,0.8c-0.4,0-0.8-0.3-0.8-0.8C7.2,4.7,7.5,4.4,8,4.4z"/>
		<rect x="5.5" y="8.7" class="st0" width="1.1" height="0.9"/>
		<rect x="5.5" y="7.4" class="st0" width="1.1" height="0.9"/>
		<rect x="4" y="8.7" class="st0" width="1.1" height="0.9"/>
		<rect x="4" y="7.4" class="st0" width="1.1" height="0.9"/>
		<path class="st0" d="M4.2,4.4c0.4,0,0.8,0.3,0.8,0.8c0,0.4-0.3,0.8-0.8,0.8S3.4,5.5,3.4,5.1C3.4,4.7,3.7,4.4,4.2,4.4z"/>
		<path class="st0" d="M3.6,8.7v0.9H3.4C3,9.7,2.6,9.3,2.6,8.9V8.7H3.6z"/>
		<path class="st0" d="M3.6,7.4v0.9H2.6V8.2c0-0.4,0.3-0.8,0.8-0.8H3.6z"/>
	</g>
	<g>
	</g>
</g>
</svg>
