<?xml version="1.0" encoding="utf-8"?>
<!-- Generator: Adobe Illustrator 22.0.1, SVG Export Plug-In . SVG Version: 6.00 Build 0)  -->
<svg version="1.1" id="Слой_1" xmlns="http://www.w3.org/2000/svg" xmlns:xlink="http://www.w3.org/1999/xlink" x="0px" y="0px"
	 viewBox="0 0 15 15" style="enable-background:new 0 0 15 15;" xml:space="preserve">
<path d="M12,2.1c-0.2-0.1-0.4-0.1-0.5,0.1c-0.1,0.1-0.2,0.4-0.1,0.6c0.5,0.7,0.7,1.6,0.7,2.5c0,1.5-0.8,2.9-2,3.7l-2.2,1.5V9.9
	l1.2-1c0.1-0.1,0.1-0.3,0.1-0.4L9,8c1-0.5,1.6-1.6,1.6-2.7c0-1.1-0.6-2.1-1.5-2.7l0.1-0.3c0.1-0.2,0-0.3-0.1-0.5L7.5,0.3L5.8,1.8
	C5.7,1.9,5.7,2.1,5.7,2.2l0.1,0.3C5,3.1,4.3,4.1,4.3,5.2C4.3,6.4,5,7.4,5.9,8L5.7,8.5c-0.1,0.1,0,0.3,0.1,0.4l1.2,1v0.6L4.9,9
	c-1.2-0.8-2-2.2-2-3.7c0-0.9,0.2-1.7,0.7-2.5c0.1-0.2,0.1-0.4-0.1-0.5C3.4,2.1,3.1,2.1,3,2.2C0.7,3.4-0.3,6.1,0.7,8.6
	c0.2,0.5,0.5,1,0.9,1.4l1.6,1.8C3.2,12,3.5,12.1,3.7,12l2.2-1.2l0.8,0.6l-1.3,0.9c0,0-0.1,0-0.1,0c-0.4,0-0.7,0.3-0.7,0.7
	c0,0.4,0.3,0.7,0.7,0.7c0.3,0,0.6-0.3,0.7-0.6L7,12.2V13c-0.3,0.2-0.5,0.4-0.5,0.8c0,0.5,0.4,0.9,0.9,0.9s0.9-0.4,0.9-0.9
	c0-0.3-0.2-0.6-0.5-0.8v-0.8L9.1,13c0,0.3,0.3,0.6,0.7,0.6c0.4,0,0.7-0.3,0.7-0.7c0-0.4-0.3-0.7-0.7-0.7c-0.1,0-0.1,0-0.1,0
	l-1.3-0.9l0.8-0.6l2.2,1.2c0.2,0.1,0.4,0.1,0.6-0.1l1.5-1.7c0.5-0.6,1-1.3,1.2-2.1C15.2,5.6,14.1,3.3,12,2.1L12,2.1z M9.3,5.2
	c0,0.6-0.3,1.2-0.8,1.5L8.3,6.4C8.1,5.7,8.1,5,8.3,4.3l0.2-0.5C9,4.1,9.3,4.6,9.3,5.2z M5.7,5.2c0-0.6,0.3-1.1,0.8-1.5l0.2,0.5
	c0.2,0.7,0.2,1.4,0,2.1L6.5,6.7C6,6.4,5.7,5.9,5.7,5.2L5.7,5.2z"/>
</svg>
