<?xml version="1.0" encoding="utf-8"?>
<!-- Generator: Adobe Illustrator 22.0.1, SVG Export Plug-In . SVG Version: 6.00 Build 0)  -->
<svg version="1.1" id="Слой_1" xmlns="http://www.w3.org/2000/svg" xmlns:xlink="http://www.w3.org/1999/xlink" x="0px" y="0px"
	 viewBox="0 0 21 21" style="enable-background:new 0 0 21 21;" xml:space="preserve">
<path d="M13.1,7.9c2.2,2.2,2.2,5.8,0,8c0,0,0,0,0,0l-2.5,2.5c-2.2,2.2-5.8,2.2-8,0c-2.2-2.2-2.2-5.8,0-8L4,9c0.4-0.4,1-0.1,1,0.4
	c0,0.7,0.1,1.3,0.4,2c0.1,0.2,0,0.5-0.1,0.6l-0.5,0.5c-1,1-1.1,2.7,0,3.8c1,1.1,2.8,1.1,3.8,0l2.5-2.5c1.1-1.1,1-2.7,0-3.8
	c-0.1-0.1-0.3-0.2-0.4-0.3c-0.2-0.1-0.3-0.3-0.3-0.5c0-0.4,0.1-0.8,0.4-1.1l0.8-0.8c0.2-0.2,0.5-0.2,0.8-0.1
	C12.6,7.4,12.9,7.6,13.1,7.9L13.1,7.9z M18.4,2.6c-2.2-2.2-5.8-2.2-8,0L7.9,5.1c0,0,0,0,0,0c-2.2,2.2-2.2,5.8,0,8
	c0.2,0.2,0.5,0.5,0.8,0.6c0.2,0.2,0.6,0.1,0.8-0.1l0.8-0.8c0.3-0.3,0.5-0.7,0.4-1.1c0-0.2-0.1-0.4-0.3-0.5c-0.1-0.1-0.2-0.2-0.4-0.3
	c-1-1-1.1-2.7,0-3.8l2.5-2.5c1.1-1.1,2.8-1,3.8,0c1,1.1,1,2.8,0,3.8L15.8,9c-0.2,0.2-0.2,0.4-0.1,0.6c0.2,0.6,0.3,1.3,0.4,2
	c0,0.5,0.7,0.8,1,0.4l1.4-1.4C20.6,8.4,20.6,4.8,18.4,2.6L18.4,2.6z"/>
</svg>
