<?xml version="1.0" encoding="utf-8"?>
<!-- Generator: Adobe Illustrator 22.0.1, SVG Export Plug-In . SVG Version: 6.00 Build 0)  -->
<svg version="1.1" id="Слой_1" xmlns="http://www.w3.org/2000/svg" xmlns:xlink="http://www.w3.org/1999/xlink" x="0px" y="0px"
	 viewBox="0 0 10 10" style="enable-background:new 0 0 10 10;" xml:space="preserve">
<path d="M9.3,0.6H7.5c-0.3,0-0.4,0.3-0.2,0.5l0.4,0.4L5.8,3.4C5.3,3.1,4.6,2.9,4,2.9c-1.9,0-3.4,1.5-3.4,3.4S2.1,9.6,4,9.6
	s3.4-1.5,3.4-3.4c0-0.7-0.2-1.3-0.5-1.8l1.9-1.9l0.4,0.4C9.3,3.1,9.6,3,9.6,2.7V0.9C9.6,0.7,9.5,0.6,9.3,0.6L9.3,0.6z M4,8.1
	c-1,0-1.9-0.8-1.9-1.9S2.9,4.4,4,4.4s1.9,0.8,1.9,1.9S5,8.1,4,8.1z"/>
</svg>
