<?xml version="1.0" encoding="utf-8"?>
<!-- Generator: Adobe Illustrator 22.0.1, SVG Export Plug-In . SVG Version: 6.00 Build 0)  -->
<svg version="1.1" id="Слой_1" xmlns="http://www.w3.org/2000/svg" xmlns:xlink="http://www.w3.org/1999/xlink" x="0px" y="0px"
	 viewBox="0 0 20 20" style="enable-background:new 0 0 20 20;" xml:space="preserve">
<path d="M13.1,0.5h-2.9C9.8,0.5,9.6,1,9.9,1.3l0.6,0.6L8.7,3.7C7.9,3.2,6.9,2.9,5.9,2.9c-2.9,0-5.3,2.4-5.3,5.3s2.4,5.3,5.3,5.3
	s5.3-2.4,5.3-5.3c0-1-0.3-2-0.8-2.8l1.8-1.8l0.6,0.6c0.1,0.1,0.2,0.1,0.3,0.1c0.2,0,0.4-0.2,0.4-0.4V1C13.6,0.7,13.4,0.5,13.1,0.5z
	 M5.9,11.2c-1.6,0-3-1.3-3-3s1.3-3,3-3s3,1.3,3,3S7.5,11.2,5.9,11.2z M19,6.4h-2.9c-0.4,0-0.6,0.5-0.3,0.8l0.6,0.6l-1.8,1.8
	c-0.7-0.4-1.4-0.7-2.3-0.8c-0.1,0.8-0.3,1.6-0.7,2.3c0,0,0.1,0,0.1,0c1.6,0,3,1.3,3,3s-1.3,3-3,3s-3-1.3-3-3c0,0,0-0.1,0-0.1
	c-0.7,0.4-1.5,0.6-2.3,0.7c0.3,2.7,2.5,4.8,5.3,4.8c2.9,0,5.3-2.4,5.3-5.3c0-1-0.3-2-0.8-2.8l1.8-1.8l0.6,0.6
	c0.1,0.1,0.2,0.1,0.3,0.1c0.2,0,0.4-0.2,0.4-0.4V6.9C19.5,6.6,19.3,6.4,19,6.4z"/>
</svg>
