<?xml version="1.0" encoding="UTF-8"?>
<svg width="50px" height="50px" version="1.1" viewBox="0 0 50 50" xmlns="http://www.w3.org/2000/svg">
 <path d="m30.621 4.6094c-3.5 0-8.0195 1.9375-12.359 5.1562-0.39844 0.29688-0.79297 0.59375-1.1836 0.91016-0.10547 0.085938-0.21094 0.17578-0.31641 0.26172-0.40625 0.33594-0.80859 0.68359-1.2109 1.043-0.13672 0.12109-0.27344 0.24219-0.41016 0.36719-0.49219 0.44922-0.98047 0.90625-1.4609 1.3867l-0.003907 0.003906-0.007812 0.011719c-0.50391 0.50391-0.98438 1.0117-1.4492 1.5273-0.16016 0.17188-0.30469 0.34375-0.45703 0.51953-0.30859 0.34375-0.60938 0.69141-0.89844 1.043-0.09375 0.10938-0.17969 0.22266-0.26953 0.33594-5.8438 7.3242-7.3359 14.555-4.7188 17.168 0.83984 0.84375 2.0898 1.2656 3.7227 1.2656 1.6562 0 3.543-0.44141 5.5273-1.2344 0.5-3.707 2.8203-8.5312 6.7695-12.48 3.9336-3.9336 8.7695-6.2578 12.477-6.7812 0.15234-0.39062 0.30859-0.78125 0.4375-1.168 1.2109-3.625 1.0391-6.5664-0.46484-8.0703-0.83984-0.83984-2.0938-1.2656-3.7227-1.2656zm5.5312 0.32812c3.2109 4.0078 0.89453 12.234-5.3516 19.832-0.89062 1.0938-1.8516 2.168-2.8906 3.2031-0.69141 0.69531-1.4062 1.3438-2.1289 1.9727-0.17188 0.14844-0.34375 0.29297-0.51562 0.44141-0.23047 0.19531-0.46484 0.39453-0.70312 0.58203-5.2305 4.25-10.75 6.6406-14.965 6.6406-1.8906 0-3.5156-0.48438-4.7383-1.4961 0.52344 1.2578 1.6484 3.4141 3.8828 5.6523 1.8242 1.8242 5.5508 4.2344 10.645 4.2344 4.8008 0 10.82-2.1406 17.613-8.9375 14.125-14.125 8.2305-24.742 4.707-28.266-2.1992-2.1992-4.25-3.3125-5.5547-3.8594zm-7.9453 3.0938c0.41016-0.0625 0.79688 0.21484 0.85938 0.625 0.066407 0.40625-0.21484 0.79297-0.625 0.85938-0.47656 0.074219-0.83594 0.5-0.83594 0.98438 0 0.55469 0.44531 1 1 1 0.49219 0 0.90625-0.35156 0.98438-0.83594 0.066406-0.41016 0.44531-0.69141 0.85938-0.61719 0.40625 0.0625 0.6875 0.44922 0.62109 0.85938-0.19531 1.2148-1.2344 2.0938-2.4648 2.0938-0.75391 0-1.4219-0.33984-1.8828-0.86719-0.23828 0.62891-0.48047 1.3125-0.69141 1.957-0.21875 1.0742-1.2461 1.9102-2.4258 1.9102-0.70703 0-1.3398-0.29297-1.793-0.76172-0.29688 0.92578-0.57812 1.9844-0.75391 2.75-0.20703 1.1523-1.2422 2.0117-2.4531 2.0117-0.68359 0-1.3008-0.27344-1.75-0.71875-0.21094 0.92578-0.28516 1.8438-0.33984 2.6016-0.03125 0.41016-0.0625 0.77734-0.10547 1.0781-0.17188 1.2109-1.2344 2.125-2.4727 2.125-0.39844 0-0.76562-0.10156-1.0977-0.26953 0.015625 0.67969 0.0625 1.3086 0.10938 1.8672 0.070312 0.86328 0.13281 1.6094 0.046875 2.2344-0.17188 1.2109-1.2344 2.125-2.4766 2.125-1.3789 0-2.4961-1.1211-2.4961-2.5 0-0.67578 0.26562-1.3086 0.74609-1.7812 0.29688-0.29297 0.76953-0.28906 1.0586 0.007812 0.29297 0.29688 0.28906 0.76953-0.007812 1.0586-0.19141 0.19141-0.29688 0.44531-0.29688 0.71875 0 0.55078 0.44531 1 0.99609 1 0.49609 0 0.92188-0.35938 0.98828-0.83594 0.0625-0.45703 0.007812-1.1289-0.054688-1.9023-0.10547-1.2461-0.23438-2.8008 0.015625-4.6055 0.003906-0.027344 0.019531-0.054687 0.027344-0.082031 0.12891-0.69141 0.52734-1.3008 1.1445-1.6719 0.35547-0.21875 0.81641-0.10547 1.0312 0.25s0.10156 0.81641-0.25 1.0312c-0.30469 0.18359-0.48438 0.50391-0.48438 0.85547 0 0.55078 0.44922 1 1 1 0.49609 0 0.92188-0.35938 0.98438-0.83594 0.039063-0.27344 0.066406-0.60547 0.09375-0.98047 0.10938-1.4297 0.27344-3.5898 1.375-5.4219 0-0.003906 0.003906-0.003906 0.011719-0.007812 0.33984-0.64453 0.95312-1.1328 1.6992-1.2891 0.40625-0.078125 0.80469 0.17969 0.88281 0.58594 0.085938 0.40625-0.17578 0.80078-0.58203 0.88281-0.46094 0.097657-0.79688 0.50781-0.79688 0.98047 0 0.55469 0.44531 1 1 1 0.48047 0 0.89844-0.34375 0.98438-0.81641 0.15625-0.67578 0.91406-3.8242 1.6484-4.9805 0.28125-0.82422 0.97656-1.4688 1.8633-1.6523 0.40625-0.078125 0.80469 0.17969 0.88281 0.58594 0.085938 0.40625-0.17578 0.80078-0.58203 0.88281-0.46094 0.097657-0.79688 0.50781-0.79688 0.98047 0 0.55078 0.44531 1 1 1 0.47266 0 0.88281-0.33203 0.97656-0.79688 0.36719-1.1484 1.2148-3.6016 1.8555-4.4492 0.36328-0.63672 0.99609-1.1016 1.7695-1.2227zm9.1758 13.98c0.19141 0.007812 0.37891 0.089844 0.52344 0.24219 0.27734 0.30469 0.25781 0.77734-0.046875 1.0586-0.21094 0.19141-0.32422 0.45312-0.32422 0.73438 0 0.55469 0.44922 1 1 1 0.41016 0 0.98438-0.26172 0.98438-0.84375 0-0.14453-0.023437-0.28906-0.13281-0.55859-0.15625-0.38281 0.027344-0.82031 0.41016-0.97656 0.38281-0.15625 0.82031 0.023437 0.98047 0.41016 0.16797 0.41406 0.24219 0.75391 0.24219 1.125-0.003906 1.4688-1.2656 2.3438-2.4883 2.3438-0.34766 0-0.67578-0.066406-0.97266-0.19531 0.027344 0.32422 0.058594 0.64844 0.09375 0.95312 0.125 1.1797 0.22266 2.1055 0.078125 2.707-0.31641 1.2891-1.2734 2.0312-2.625 2.0312-0.57812 0-1.0703-0.21875-1.4531-0.58203 0.019531 0.14062 0.042969 0.28516 0.078125 0.42969 0.38281 1.625 0.125 2.5781-0.48047 3.7656-0.22656 0.44922-0.53125 0.86719-0.90625 1.2344-0.14844 0.14453-0.33984 0.21484-0.52734 0.21484-0.19531 0-0.39062-0.074219-0.53516-0.22656-0.23438-0.23828-0.26562-0.58984-0.11328-0.875-0.39453-0.050781-0.75781-0.1875-1.0742-0.39844-0.042969 0.39453-0.085937 0.82031-0.12109 1.2812-0.089843 1.207-1.1719 2.1484-2.4727 2.1484-0.82812 0-1.5625-0.41016-2.0156-1.0352-0.20703 0.57031-0.38281 1.2109-0.51953 1.9648-0.21875 1.1992-1.2539 2.0703-2.4648 2.0703-0.38672 0-0.75-0.09375-1.0781-0.25391-0.38672 0.80469-1.0781 1.1758-1.5195 1.2539-0.046875 0.011719-0.089844 0.015625-0.13672 0.015625-0.35547 0-0.66797-0.25391-0.73438-0.61328-0.074219-0.40234 0.18359-0.78906 0.58203-0.87109 0.10547-0.027343 0.57031-0.20312 0.58203-1.0625-0.125-0.29688-0.19531-0.62109-0.19531-0.96484 0-0.69922 0.29297-1.3672 0.80859-1.8398 0.30469-0.28125 0.77734-0.26172 1.0625 0.042969 0.27734 0.30469 0.25781 0.78125-0.046875 1.0586-0.21094 0.19141-0.32422 0.45703-0.32422 0.73828 0 0.55078 0.44922 1 1 1 0.48438 0 0.89844-0.35547 0.98828-0.84375 0.375-2.0742 0.98047-3.5195 1.9062-4.5547 0.019532-0.023437 0.046875-0.035156 0.070313-0.050781 0.10156-0.14453 0.21484-0.27344 0.34375-0.39062 0.30469-0.28125 0.77734-0.26172 1.0625 0.042969 0.27734 0.30469 0.25781 0.78125-0.046875 1.0586-0.21094 0.19141-0.32422 0.45703-0.32422 0.73828 0 0.55078 0.44922 1 1 1 0.5 0 0.94531-0.35156 0.98047-0.76562 0.097656-1.3281 0.29688-3.1094 0.66406-4.0547 0.007813-0.015625 0.011719-0.019531 0.015625-0.03125 0.13672-0.37109 0.35156-0.71484 0.65234-0.98828 0.30469-0.28125 0.77734-0.26172 1.0586 0.042969 0.28125 0.30469 0.26172 0.78125-0.042969 1.0586-0.21094 0.19141-0.32812 0.45703-0.32812 0.73828 0 0.55078 0.44922 1 1 1 0.21484 0 0.52344-0.046875 0.77734-0.46484 0.007812-0.015625 0.019531-0.023438 0.027344-0.035156 0.14844-0.51953 0.14844-1.0352-0.035157-1.8047-0.46875-2 0.066407-3.8125 1.4336-4.8477 0.007813 0.003906 0.007813 0.003906 0.015625 0.007812 0.28125-0.21094 0.67188-0.21094 0.94531 0.035157 0.30469 0.28125 0.32812 0.75391 0.050781 1.0586-0.29297 0.31641-0.44531 1.1094-0.20312 1.6523 0.15234 0.35547 0.38672 0.40234 0.59766 0.40234 0.65625 0 1.0156-0.27734 1.1641-0.88672 0.082031-0.34766-0.019532-1.3281-0.11328-2.1914-0.125-1.207-0.25-2.5312-0.10938-3.5742 0.011719-0.16406 0.035157-0.32422 0.078125-0.48438 0.007813-0.023437 0.003907-0.050781 0.011719-0.078125 0.007813-0.023437 0.023438-0.042969 0.035156-0.066406 0.13281-0.39844 0.35156-0.76562 0.66797-1.0547 0.15234-0.13672 0.34766-0.20312 0.53906-0.19531z"/>
</svg>
