<?xml version="1.0" encoding="utf-8"?>
<!-- Generator: Adobe Illustrator 22.0.1, SVG Export Plug-In . SVG Version: 6.00 Build 0)  -->
<svg version="1.1" id="Слой_1" xmlns="http://www.w3.org/2000/svg" xmlns:xlink="http://www.w3.org/1999/xlink" x="0px" y="0px"
	 viewBox="0 0 73 71" style="enable-background:new 0 0 73 71;" xml:space="preserve">
<style type="text/css">
	.st0{fill:#FFFFFF;}
</style>
<g id="XMLID_1_">
	<g>
		<path d="M57,18.8c0,6.3-3.8,11.7-9.4,14.7l0.7,3.5c0.4,1.7-0.7,3.3-2.2,3.3h-17c-1.5,0-2.6-1.6-2.2-3.3l0.7-3.5
			c-5.6-3-9.4-8.4-9.4-14.7c0-9.5,8.7-17.2,19.4-17.2C48.3,1.6,57,9.3,57,18.8z M49.4,21c0-2.4-1.9-4.3-4.3-4.3
			c-2.4,0-4.3,1.9-4.3,4.3c0,2.4,1.9,4.3,4.3,4.3C47.5,25.3,49.4,23.3,49.4,21z M34.4,21c0-2.4-1.9-4.3-4.3-4.3
			c-2.4,0-4.3,1.9-4.3,4.3c0,2.4,1.9,4.3,4.3,4.3C32.4,25.3,34.4,23.3,34.4,21z"/>
		<path class="st0" d="M45.1,16.7c2.4,0,4.3,1.9,4.3,4.3c0,2.4-1.9,4.3-4.3,4.3c-2.4,0-4.3-1.9-4.3-4.3
			C40.8,18.6,42.8,16.7,45.1,16.7z"/>
		<path class="st0" d="M30.1,16.7c2.4,0,4.3,1.9,4.3,4.3c0,2.4-1.9,4.3-4.3,4.3c-2.4,0-4.3-1.9-4.3-4.3
			C25.8,18.6,27.7,16.7,30.1,16.7z"/>
		<path d="M67.5,41.1c0.5,1.1,0.1,2.3-1,2.9l-19.1,9.3l19.1,9.3c1.1,0.5,1.5,1.8,1,2.9l-1.9,3.8c-0.5,1.1-1.8,1.5-2.9,1L37.6,58
			L12.5,70.2c-1.1,0.5-2.4,0.1-2.9-1l-1.9-3.8c-0.5-1.1-0.1-2.4,1-2.9l19.1-9.3L8.6,44c-1.1-0.5-1.5-1.8-1-2.9l1.9-3.9
			c0.5-1.1,1.8-1.5,2.9-1l25.1,12.2l25.1-12.2c1.1-0.5,2.4-0.1,2.9,1L67.5,41.1z"/>
	</g>
	<g>
	</g>
</g>
</svg>
