<?xml version="1.0" encoding="utf-8"?>
<!-- Generator: Adobe Illustrator 22.0.1, SVG Export Plug-In . SVG Version: 6.00 Build 0)  -->
<svg version="1.1" id="Слой_1" xmlns="http://www.w3.org/2000/svg" xmlns:xlink="http://www.w3.org/1999/xlink" x="0px" y="0px"
	 viewBox="0 0 16.2 16.2" style="enable-background:new 0 0 16.2 16.2;" xml:space="preserve">
<path d="M1.2,15.7c0.2,0,0.5-0.1,0.6-0.3c0.2-0.2,0.3-0.4,0.3-0.7l2.3-2.3l2.3,2.3l-0.7-2l-0.6-0.6l2.6-2.6l2.6,2.6l-0.6,0.6l-0.7,2
	l2.3-2.3l2.3,2.3c0,0.2,0.1,0.5,0.3,0.7c0.2,0.2,0.4,0.3,0.6,0.3c0.2,0,0.5-0.1,0.6-0.3c0.4-0.4,0.4-0.9,0-1.3
	c-0.2-0.2-0.4-0.3-0.7-0.3l-2.3-2.3l2.3-2.3l-2,0.7l-0.6,0.6L9.7,7.9l5.6-5.6l0.3-1.9l-1.9,0.3L8.1,6.4L2.5,0.8L0.6,0.5l0.3,1.9
	l5.6,5.6l-2.6,2.6L3.3,10l-2-0.7l2.3,2.3l-2.3,2.3c-0.2,0-0.5,0.1-0.7,0.3c-0.4,0.4-0.4,0.9,0,1.3C0.8,15.6,1,15.7,1.2,15.7
	L1.2,15.7z"/>
</svg>
