<?xml version="1.0" encoding="utf-8"?>
<!-- Generator: Adobe Illustrator 22.0.1, SVG Export Plug-In . SVG Version: 6.00 Build 0)  -->
<svg version="1.1" id="Слой_1" xmlns="http://www.w3.org/2000/svg" xmlns:xlink="http://www.w3.org/1999/xlink" x="0px" y="0px"
	 viewBox="0 0 14.9 15" style="enable-background:new 0 0 14.9 15;" xml:space="preserve">
<path d="M14.1,6.8h-0.3V5.4c0-0.4-0.3-0.7-0.7-0.7h-1.6L9.6,2.5C9.3,2.2,8.9,2,8.5,2H6.1C5.7,2,5.4,2.3,5.4,2.7v2.1H1.5
	c-0.2,0-0.3,0.2-0.3,0.3v1.7H0.8C0.7,6.8,0.5,7,0.5,7.2v0.7c0,0.2,0.2,0.3,0.3,0.3h0.4C1.8,7.4,2.8,6.8,4,6.8s2.1,0.6,2.8,1.4h1.4
	c0.6-0.8,1.6-1.4,2.8-1.4c1.1,0,2.1,0.6,2.8,1.4h0.4c0.2,0,0.3-0.2,0.3-0.3V7.2C14.4,7,14.2,6.8,14.1,6.8z M6.8,4.7V3.4h1.8l1.1,1.4
	H6.8z M13.4,9.6h-0.1c0-0.2-0.1-0.3-0.2-0.5l0.1-0.1c0.1-0.1,0.1-0.4,0-0.5l-0.5-0.5c-0.1-0.1-0.4-0.1-0.5,0l-0.1,0.1
	C11.9,8.1,11.8,8,11.6,8V7.9c0-0.2-0.2-0.3-0.3-0.3h-0.7c-0.2,0-0.3,0.2-0.3,0.3V8c-0.2,0-0.3,0.1-0.5,0.2L9.7,8.1
	C9.6,8,9.3,8,9.2,8.1L8.7,8.6c-0.1,0.1-0.1,0.4,0,0.5l0.1,0.1C8.7,9.3,8.7,9.5,8.6,9.6H8.5c-0.2,0-0.3,0.2-0.3,0.3v0.7
	c0,0.2,0.2,0.3,0.3,0.3h0.1c0,0.2,0.1,0.3,0.2,0.5l-0.1,0.1c-0.1,0.1-0.1,0.4,0,0.5l0.5,0.5c0.1,0.1,0.4,0.1,0.5,0l0.1-0.1
	c0.1,0.1,0.3,0.1,0.5,0.2v0.1c0,0.2,0.2,0.3,0.3,0.3h0.7c0.2,0,0.3-0.2,0.3-0.3v-0.1c0.2,0,0.3-0.1,0.5-0.2l0.1,0.1
	c0.1,0.1,0.4,0.1,0.5,0l0.5-0.5c0.1-0.1,0.1-0.4,0-0.5l-0.1-0.1c0.1-0.1,0.1-0.3,0.2-0.5h0.1c0.2,0,0.3-0.2,0.3-0.3V10
	C13.7,9.8,13.6,9.6,13.4,9.6L13.4,9.6z M10.9,11.3c-0.6,0-1-0.5-1-1c0-0.6,0.5-1,1-1c0.6,0,1,0.5,1,1C12,10.9,11.5,11.3,10.9,11.3z
	 M6.4,9.6H6.3c0-0.2-0.1-0.3-0.2-0.5l0.1-0.1c0.1-0.1,0.1-0.4,0-0.5L5.7,8.1C5.6,8,5.3,8,5.2,8.1L5.1,8.2C5,8.1,4.8,8,4.7,8V7.9
	c0-0.2-0.2-0.3-0.3-0.3H3.6c-0.2,0-0.3,0.2-0.3,0.3V8C3.1,8,3,8.1,2.8,8.2L2.7,8.1C2.6,8,2.4,8,2.3,8.1L1.8,8.6
	c-0.1,0.1-0.1,0.4,0,0.5l0.1,0.1C1.8,9.3,1.7,9.5,1.7,9.6H1.5c-0.2,0-0.3,0.2-0.3,0.3v0.7c0,0.2,0.2,0.3,0.3,0.3h0.1
	c0,0.2,0.1,0.3,0.2,0.5l-0.1,0.1c-0.1,0.1-0.1,0.4,0,0.5l0.5,0.5c0.1,0.1,0.4,0.1,0.5,0l0.1-0.1c0.1,0.1,0.3,0.1,0.5,0.2v0.1
	c0,0.2,0.2,0.3,0.3,0.3h0.7c0.2,0,0.3-0.2,0.3-0.3v-0.1c0.2,0,0.3-0.1,0.5-0.2l0.1,0.1c0.1,0.1,0.4,0.1,0.5,0L6.2,12
	c0.1-0.1,0.1-0.4,0-0.5l-0.1-0.1c0.1-0.1,0.1-0.3,0.2-0.5h0.1c0.2,0,0.3-0.2,0.3-0.3V10C6.8,9.8,6.6,9.6,6.4,9.6z M4,11.3
	c-0.6,0-1-0.5-1-1c0-0.6,0.5-1,1-1s1,0.5,1,1C5,10.9,4.6,11.3,4,11.3z"/>
</svg>
