<svg xmlns="http://www.w3.org/2000/svg"  viewBox="0 0 50 50" width="50px" height="50px"><path d="M 30.621094 4.609375 C 27.121094 4.609375 22.601563 6.546875 18.261719 9.765625 C 17.863281 10.0625 17.46875 10.359375 17.078125 10.675781 C 16.972656 10.761719 16.867188 10.851563 16.761719 10.9375 C 16.355469 11.273438 15.953125 11.621094 15.550781 11.980469 C 15.414063 12.101563 15.277344 12.222656 15.140625 12.347656 C 14.648438 12.796875 14.160156 13.253906 13.679688 13.734375 L 13.675781 13.738281 L 13.667969 13.75 C 13.164063 14.253906 12.683594 14.761719 12.21875 15.277344 C 12.058594 15.449219 11.914063 15.621094 11.761719 15.796875 C 11.453125 16.140625 11.152344 16.488281 10.863281 16.839844 C 10.769531 16.949219 10.683594 17.0625 10.59375 17.175781 C 4.75 24.5 3.257813 31.730469 5.875 34.34375 C 6.714844 35.1875 7.964844 35.609375 9.597656 35.609375 C 11.253906 35.609375 13.140625 35.167969 15.125 34.375 C 15.625 30.667969 17.945313 25.84375 21.894531 21.894531 C 25.828125 17.960938 30.664063 15.636719 34.371094 15.113281 C 34.523438 14.722656 34.679688 14.332031 34.808594 13.945313 C 36.019531 10.320313 35.847656 7.378906 34.34375 5.875 C 33.503906 5.035156 32.25 4.609375 30.621094 4.609375 Z M 36.152344 4.9375 C 39.363281 8.945313 37.046875 17.171875 30.800781 24.769531 C 29.910156 25.863281 28.949219 26.9375 27.910156 27.972656 C 27.21875 28.667969 26.503906 29.316406 25.78125 29.945313 C 25.609375 30.09375 25.4375 30.238281 25.265625 30.386719 C 25.035156 30.582031 24.800781 30.78125 24.5625 30.96875 C 19.332031 35.21875 13.8125 37.609375 9.597656 37.609375 C 7.707031 37.609375 6.082031 37.125 4.859375 36.113281 C 5.382813 37.371094 6.507813 39.527344 8.742188 41.765625 C 10.566406 43.589844 14.292969 46 19.386719 46 C 24.1875 46 30.207031 43.859375 37 37.0625 C 51.125 22.9375 45.230469 12.320313 41.707031 8.796875 C 39.507813 6.597656 37.457031 5.484375 36.152344 4.9375 Z M 28.207031 8.03125 C 28.617188 7.96875 29.003906 8.246094 29.066406 8.65625 C 29.132813 9.0625 28.851563 9.449219 28.441406 9.515625 C 27.964844 9.589844 27.605469 10.015625 27.605469 10.5 C 27.605469 11.054688 28.050781 11.5 28.605469 11.5 C 29.097656 11.5 29.511719 11.148438 29.589844 10.664063 C 29.65625 10.253906 30.035156 9.972656 30.449219 10.046875 C 30.855469 10.109375 31.136719 10.496094 31.070313 10.90625 C 30.875 12.121094 29.835938 13 28.605469 13 C 27.851563 13 27.183594 12.660156 26.722656 12.132813 C 26.484375 12.761719 26.242188 13.445313 26.03125 14.089844 C 25.8125 15.164063 24.785156 16 23.605469 16 C 22.898438 16 22.265625 15.707031 21.8125 15.238281 C 21.515625 16.164063 21.234375 17.222656 21.058594 17.988281 C 20.851563 19.140625 19.816406 20 18.605469 20 C 17.921875 20 17.304688 19.726563 16.855469 19.28125 C 16.644531 20.207031 16.570313 21.125 16.515625 21.882813 C 16.484375 22.292969 16.453125 22.660156 16.410156 22.960938 C 16.238281 24.171875 15.175781 25.085938 13.9375 25.085938 C 13.539063 25.085938 13.171875 24.984375 12.839844 24.816406 C 12.855469 25.496094 12.902344 26.125 12.949219 26.683594 C 13.019531 27.546875 13.082031 28.292969 12.996094 28.917969 C 12.824219 30.128906 11.761719 31.042969 10.519531 31.042969 C 9.140625 31.042969 8.023438 29.921875 8.023438 28.542969 C 8.023438 27.867188 8.289063 27.234375 8.769531 26.761719 C 9.066406 26.46875 9.539063 26.472656 9.828125 26.769531 C 10.121094 27.066406 10.117188 27.539063 9.820313 27.828125 C 9.628906 28.019531 9.523438 28.273438 9.523438 28.546875 C 9.523438 29.097656 9.96875 29.546875 10.519531 29.546875 C 11.015625 29.546875 11.441406 29.1875 11.507813 28.710938 C 11.570313 28.253906 11.515625 27.582031 11.453125 26.808594 C 11.347656 25.5625 11.21875 24.007813 11.46875 22.203125 C 11.472656 22.175781 11.488281 22.148438 11.496094 22.121094 C 11.625 21.429688 12.023438 20.820313 12.640625 20.449219 C 12.996094 20.230469 13.457031 20.34375 13.671875 20.699219 C 13.886719 21.054688 13.773438 21.515625 13.421875 21.730469 C 13.117188 21.914063 12.9375 22.234375 12.9375 22.585938 C 12.9375 23.136719 13.386719 23.585938 13.9375 23.585938 C 14.433594 23.585938 14.859375 23.226563 14.921875 22.75 C 14.960938 22.476563 14.988281 22.144531 15.015625 21.769531 C 15.125 20.339844 15.289063 18.179688 16.390625 16.347656 C 16.390625 16.34375 16.394531 16.34375 16.402344 16.339844 C 16.742188 15.695313 17.355469 15.207031 18.101563 15.050781 C 18.507813 14.972656 18.90625 15.230469 18.984375 15.636719 C 19.070313 16.042969 18.808594 16.4375 18.402344 16.519531 C 17.941406 16.617188 17.605469 17.027344 17.605469 17.5 C 17.605469 18.054688 18.050781 18.5 18.605469 18.5 C 19.085938 18.5 19.503906 18.15625 19.589844 17.683594 C 19.746094 17.007813 20.503906 13.859375 21.238281 12.703125 C 21.519531 11.878906 22.214844 11.234375 23.101563 11.050781 C 23.507813 10.972656 23.90625 11.230469 23.984375 11.636719 C 24.070313 12.042969 23.808594 12.4375 23.402344 12.519531 C 22.941406 12.617188 22.605469 13.027344 22.605469 13.5 C 22.605469 14.050781 23.050781 14.5 23.605469 14.5 C 24.078125 14.5 24.488281 14.167969 24.582031 13.703125 C 24.949219 12.554688 25.796875 10.101563 26.4375 9.253906 C 26.800781 8.617188 27.433594 8.152344 28.207031 8.03125 Z M 37.382813 22.011719 C 37.574219 22.019531 37.761719 22.101563 37.90625 22.253906 C 38.183594 22.558594 38.164063 23.03125 37.859375 23.3125 C 37.648438 23.503906 37.535156 23.765625 37.535156 24.046875 C 37.535156 24.601563 37.984375 25.046875 38.535156 25.046875 C 38.945313 25.046875 39.519531 24.785156 39.519531 24.203125 C 39.519531 24.058594 39.496094 23.914063 39.386719 23.644531 C 39.230469 23.261719 39.414063 22.824219 39.796875 22.667969 C 40.179688 22.511719 40.617188 22.691406 40.777344 23.078125 C 40.945313 23.492188 41.019531 23.832031 41.019531 24.203125 C 41.015625 25.671875 39.753906 26.546875 38.53125 26.546875 C 38.183594 26.546875 37.855469 26.480469 37.558594 26.351563 C 37.585938 26.675781 37.617188 27 37.652344 27.304688 C 37.777344 28.484375 37.875 29.410156 37.730469 30.011719 C 37.414063 31.300781 36.457031 32.042969 35.105469 32.042969 C 34.527344 32.042969 34.035156 31.824219 33.652344 31.460938 C 33.671875 31.601563 33.695313 31.746094 33.730469 31.890625 C 34.113281 33.515625 33.855469 34.46875 33.25 35.65625 C 33.023438 36.105469 32.71875 36.523438 32.34375 36.890625 C 32.195313 37.035156 32.003906 37.105469 31.816406 37.105469 C 31.621094 37.105469 31.425781 37.03125 31.28125 36.878906 C 31.046875 36.640625 31.015625 36.289063 31.167969 36.003906 C 30.773438 35.953125 30.410156 35.816406 30.09375 35.605469 C 30.050781 36 30.007813 36.425781 29.972656 36.886719 C 29.882813 38.09375 28.800781 39.035156 27.5 39.035156 C 26.671875 39.035156 25.9375 38.625 25.484375 38 C 25.277344 38.570313 25.101563 39.210938 24.964844 39.964844 C 24.746094 41.164063 23.710938 42.035156 22.5 42.035156 C 22.113281 42.035156 21.75 41.941406 21.421875 41.78125 C 21.035156 42.585938 20.34375 42.957031 19.902344 43.035156 C 19.855469 43.046875 19.8125 43.050781 19.765625 43.050781 C 19.410156 43.050781 19.097656 42.796875 19.03125 42.4375 C 18.957031 42.035156 19.214844 41.648438 19.613281 41.566406 C 19.71875 41.539063 20.183594 41.363281 20.195313 40.503906 C 20.070313 40.207031 20 39.882813 20 39.539063 C 20 38.839844 20.292969 38.171875 20.808594 37.699219 C 21.113281 37.417969 21.585938 37.4375 21.871094 37.742188 C 22.148438 38.046875 22.128906 38.523438 21.824219 38.800781 C 21.613281 38.992188 21.5 39.257813 21.5 39.539063 C 21.5 40.089844 21.949219 40.539063 22.5 40.539063 C 22.984375 40.539063 23.398438 40.183594 23.488281 39.695313 C 23.863281 37.621094 24.46875 36.175781 25.394531 35.140625 C 25.414063 35.117188 25.441406 35.105469 25.464844 35.089844 C 25.566406 34.945313 25.679688 34.816406 25.808594 34.699219 C 26.113281 34.417969 26.585938 34.4375 26.871094 34.742188 C 27.148438 35.046875 27.128906 35.523438 26.824219 35.800781 C 26.613281 35.992188 26.5 36.257813 26.5 36.539063 C 26.5 37.089844 26.949219 37.539063 27.5 37.539063 C 28 37.539063 28.445313 37.1875 28.480469 36.773438 C 28.578125 35.445313 28.777344 33.664063 29.144531 32.71875 C 29.152344 32.703125 29.15625 32.699219 29.160156 32.6875 C 29.296875 32.316406 29.511719 31.972656 29.8125 31.699219 C 30.117188 31.417969 30.589844 31.4375 30.871094 31.742188 C 31.152344 32.046875 31.132813 32.523438 30.828125 32.800781 C 30.617188 32.992188 30.5 33.257813 30.5 33.539063 C 30.5 34.089844 30.949219 34.539063 31.5 34.539063 C 31.714844 34.539063 32.023438 34.492188 32.277344 34.074219 C 32.285156 34.058594 32.296875 34.050781 32.304688 34.039063 C 32.453125 33.519531 32.453125 33.003906 32.269531 32.234375 C 31.800781 30.234375 32.335938 28.421875 33.703125 27.386719 C 33.710938 27.390625 33.710938 27.390625 33.71875 27.394531 C 34 27.183594 34.390625 27.183594 34.664063 27.429688 C 34.96875 27.710938 34.992188 28.183594 34.714844 28.488281 C 34.421875 28.804688 34.269531 29.597656 34.511719 30.140625 C 34.664063 30.496094 34.898438 30.542969 35.109375 30.542969 C 35.765625 30.542969 36.125 30.265625 36.273438 29.65625 C 36.355469 29.308594 36.253906 28.328125 36.160156 27.464844 C 36.035156 26.257813 35.910156 24.933594 36.050781 23.890625 C 36.0625 23.726563 36.085938 23.566406 36.128906 23.40625 C 36.136719 23.382813 36.132813 23.355469 36.140625 23.328125 C 36.148438 23.304688 36.164063 23.285156 36.175781 23.261719 C 36.308594 22.863281 36.527344 22.496094 36.84375 22.207031 C 36.996094 22.070313 37.191406 22.003906 37.382813 22.011719 Z"/></svg>